<svg width="128" height="128" viewBox="0 0 128 128" fill="none" xmlns="http://www.w3.org/2000/svg">
<path d="M38 70H6C5.46957 70 4.96086 69.7893 4.58579 69.4142C4.21071 69.0391 4 68.5304 4 68C4 67.4696 4.21071 66.9609 4.58579 66.5858C4.96086 66.2107 5.46957 66 6 66H38C38.5304 66 39.0391 66.2107 39.4142 66.5858C39.7893 66.9609 40 67.4696 40 68C40 68.5304 39.7893 69.0391 39.4142 69.4142C39.0391 69.7893 38.5304 70 38 70ZM40 60H20C19.4696 60 18.9609 59.7893 18.5858 59.4142C18.2107 59.0391 18 58.5304 18 58C18 57.4696 18.2107 56.9609 18.5858 56.5858C18.9609 56.2107 19.4696 56 20 56H40C40.5304 56 41.0391 56.2107 41.4142 56.5858C41.7893 56.9609 42 57.4696 42 58C42 58.5304 41.7893 59.0391 41.4142 59.4142C41.0391 59.7893 40.5304 60 40 60ZM42 50H32C31.4696 50 30.9609 49.7893 30.5858 49.4142C30.2107 49.0391 30 48.5304 30 48C30 47.4696 30.2107 46.9609 30.5858 46.5858C30.9609 46.2107 31.4696 46 32 46H42C42.5304 46 43.0391 46.2107 43.4142 46.5858C43.7893 46.9609 44 47.4696 44 48C44 48.5304 43.7893 49.0391 43.4142 49.4142C43.0391 49.7893 42.5304 50 42 50ZM80.9 60.64C81.2387 60.8812 81.6442 61.0108 82.06 61.0108C82.4758 61.0108 82.8813 60.8812 83.22 60.64L115.5 38.84C114.412 38.2978 113.215 38.0105 112 38H60C58.7451 38.006 57.5101 38.3148 56.4 38.9L80.9 60.64ZM74.42 60.24L53.38 41.56C52.4816 42.8664 52.0005 44.4145 52 46L48 78C48.0132 79.5037 48.4499 80.9732 49.26 82.24L74.42 60.24Z" fill="#333333"/>
<path d="M113.5 83.8003L113.52 83.7803L113.5 83.8003Z" fill="#333333"/>
<path d="M86.6997 63.0399L85.5397 63.7999C84.5295 64.5723 83.2913 64.9874 82.0197 64.9799C80.694 64.9758 79.407 64.5327 78.3597 63.7199L77.4397 62.9199L52.1797 84.9199C53.3382 85.6042 54.6544 85.9763 55.9997 85.9999H108C109.34 85.9946 110.655 85.6432 111.82 84.9799L86.6997 63.0399Z" fill="#333333"/>
<path d="M118.62 41.5596V41.5796L118.64 41.5596H118.62Z" fill="#333333"/>
<path d="M118.62 41.5801L90.1201 60.7201L114.74 82.2401C115.55 80.9732 115.987 79.5037 116 78.0001L120 46.0001C119.997 44.4212 119.516 42.8803 118.62 41.5801Z" fill="#333333"/>
</svg>
